<svg xmlns="http://www.w3.org/2000/svg">
    <defs>
        <symbol id="gift" viewBox="0 0 512 512">
            <path d="M489.5 74.49h-96.718V22.51A22.5 22.5 0 0 0 363.737.983l-81.65 24.826a38.917 38.917 0 0 0-52.175 0L148.262.983a22.5 22.5 0 0 0-29.044 21.527v51.98H22.5A22.526 22.526 0 0 0 0 96.99v45.51a22.53 22.53 0 0 0 19.5 22.294V474.5A37.542 37.542 0 0 0 57 512h398a37.542 37.542 0 0 0 37.5-37.5V164.794A22.53 22.53 0 0 0 512 142.5V96.99a22.526 22.526 0 0 0-22.5-22.5ZM293.318 109.15a7.5 7.5 0 1 0 4.364-14.352l-6.194-1.883A38.758 38.758 0 0 0 295 76.772V73.27h32.252a7.5 7.5 0 0 0 0-15H295v-3.5a38.756 38.756 0 0 0-3.511-16.142L368.1 15.334a7.5 7.5 0 0 1 9.681 7.176v58.276a6.932 6.932 0 0 0 0 2.409v25.837a7.5 7.5 0 0 1-9.681 7.176l-44.409-13.503a7.462 7.462 0 0 0-.732-.182c-.073-.015-.145-.021-.217-.034-.17-.028-.338-.056-.509-.073-.102-.01-.203-.01-.305-.016-.143-.009-.285-.019-.429-.019-.099 0-.196.008-.295.012-.147.006-.293.01-.44.025-.085.008-.168.024-.252.035-.16.021-.32.042-.478.074-.067.013-.132.033-.199.048a7.29 7.29 0 0 0-.512.131c-.056.017-.109.04-.164.057a7.36 7.36 0 0 0-.52.188c-.064.027-.124.06-.186.087-.158.07-.315.14-.47.222q-.323.173-.629.375l-.002.002c-.021.014-.04.03-.06.044a7.38 7.38 0 0 0-.538.4c-.068.054-.129.115-.193.172-.12.105-.24.21-.354.322-.077.076-.146.158-.218.237-.093.1-.188.2-.275.306-.074.09-.14.186-.21.28-.077.102-.156.203-.228.31-.07.104-.13.213-.195.32-.062.102-.126.202-.183.308-.069.13-.129.265-.19.398-.041.09-.087.175-.125.267a7.485 7.485 0 0 0-.222.617c-.009.028-.02.053-.029.08l-.001.004q-.107.353-.179.715c-.027.137-.042.275-.062.412-.014.103-.034.205-.045.309-.015.154-.019.307-.025.46-.003.09-.011.18-.011.27 0 .145.01.289.017.434.006.1.008.2.017.301.013.127.034.252.053.378.017.118.031.236.055.354.02.107.05.212.077.318.032.132.061.265.101.396.029.095.065.188.098.282.048.136.092.273.148.408.043.105.096.206.144.31.055.116.105.235.166.35q.174.326.378.635l.002.002 31.583 47.433c.081.131.166.26.255.385l13.406 20.133-21.64 2.804a7.498 7.498 0 0 0-5.526 3.68l-10.934 18.884-20.673-31.048-.033-.05-36.693-55.108 5.43-8.157a39.1 39.1 0 0 0 11.646-7.259ZM232 54.77a24 24 0 1 1 48 0v22a24.036 24.036 0 0 1-15.578 22.47 7.536 7.536 0 0 0-2.08.673A23.988 23.988 0 0 1 232 76.772ZM134.218 22.51a7.5 7.5 0 0 1 9.681-7.176l76.612 23.295A38.756 38.756 0 0 0 217 54.771v3.5h-32.252a7.5 7.5 0 1 0 0 15H217v3.5a38.758 38.758 0 0 0 3.512 16.143l-32.189 9.787-.009.003-44.415 13.504a7.5 7.5 0 0 1-9.681-7.176ZM22.5 150a7.508 7.508 0 0 1-7.5-7.5V96.99a7.508 7.508 0 0 1 7.5-7.5h96.718v19.542a22.536 22.536 0 0 0 22.433 22.519 22.716 22.716 0 0 0 6.612-.991l24.385-7.415L154.768 150ZM209 497H57a22.526 22.526 0 0 1-22.5-22.5V165h110.28l-12.463 18.717a7.5 7.5 0 0 0 5.28 11.594l29.933 3.88 15.124 26.122a7.498 7.498 0 0 0 6.256 3.738c.078.003.156.004.235.004a7.501 7.501 0 0 0 6.243-3.344l13.63-20.47Zm1.28-320.72-20.69 31.075-10.934-18.884a7.498 7.498 0 0 0-5.526-3.68l-21.64-2.804 13.5-20.276.028-.041 30.226-45.395 34.67-10.541a38.875 38.875 0 0 0 20.89 9.685l-.518.779a7.444 7.444 0 0 0-1.03 1.548l-38.94 58.481ZM477.5 474.5A22.526 22.526 0 0 1 455 497H303v-54.06a7.5 7.5 0 0 0-15 0V497h-64l.019-314.288 31.98-48.03L288 182.74v230.2a7.5 7.5 0 1 0 15 0V205.268l13.612 20.443a7.501 7.501 0 0 0 6.242 3.344c.079 0 .158-.001.237-.004a7.5 7.5 0 0 0 6.255-3.738l15.124-26.122 29.933-3.88a7.5 7.5 0 0 0 5.28-11.594L367.22 165H477.5Zm19.5-332a7.508 7.508 0 0 1-7.5 7.5H357.233l-17.881-26.855 24.385 7.415a22.721 22.721 0 0 0 6.612.99 22.536 22.536 0 0 0 22.433-22.518V89.49H489.5a7.508 7.508 0 0 1 7.5 7.5Z"/>
        </symbol>
        <symbol id="salary" viewBox="0 0 356 356">
            <path d="M306.95 186.069v-83.501a4.167 4.167 0 0 0-4.167-4.167H52.773a4.167 4.167 0 0 0-4.167 4.167v83.837c0 2.3 1.867 4.167 4.167 4.167a4.169 4.169 0 0 0 4.166-4.167v-79.67h241.677v79.334a4.169 4.169 0 0 0 4.167 4.166c2.3 0 4.167-1.867 4.167-4.166Z"/>
            <path d="M330.672 177.49a4.167 4.167 0 0 0-5.69-3.878l-147.204 57.819-147.204-57.819a4.166 4.166 0 0 0-5.69 3.878v99.399a39.68 39.68 0 0 0 39.681 39.681H290.99a39.679 39.679 0 0 0 39.682-39.681V177.49Zm-8.334 6.114v93.285a31.346 31.346 0 0 1-31.348 31.348H64.565a31.347 31.347 0 0 1-31.348-31.348v-93.285l143.037 56.182c.98.385 2.068.385 3.047 0l143.037-56.182Z"/>
            <path d="M33.217 177.49v-32.522a31.347 31.347 0 0 1 15.581-27.094l5.676-3.303a4.169 4.169 0 0 0 1.505-5.697 4.169 4.169 0 0 0-5.697-1.506l-5.676 3.304a39.68 39.68 0 0 0-19.722 34.296v32.522c0 2.3 1.867 4.167 4.166 4.167 2.3 0 4.167-1.867 4.167-4.167zm35.741-71.348 94.385-54.929c8.925-5.194 19.908-5.187 28.878.005 22.783 13.187 65.416 37.149 95.309 54.931a4.168 4.168 0 0 0 5.711-1.451 4.168 4.168 0 0 0-1.451-5.711c-29.92-17.798-72.591-41.783-95.394-54.981-11.569-6.696-25.734-6.694-37.245.005L64.766 98.939a4.169 4.169 0 0 0-1.505 5.697 4.169 4.169 0 0 0 5.697 1.506zm232.417 8.374a533.318 533.318 0 0 1 5.25 3.277c8.965 5.676 15.713 15.965 15.713 27.175v32.522c0 2.3 1.867 4.167 4.167 4.167s4.167-1.867 4.167-4.167v-32.522c0-14.079-8.329-27.087-19.589-34.216a552.68 552.68 0 0 0-5.333-3.329 4.17 4.17 0 0 0-5.734 1.359 4.17 4.17 0 0 0 1.359 5.734zM78.866 195.113v-30.654c18.823-1.945 33.802-16.925 35.747-35.747h126.329c1.946 18.823 16.925 33.802 35.748 35.747l-.001 30.947c0 2.3 1.867 4.167 4.167 4.167s4.167-1.867 4.167-4.167v-34.9a4.167 4.167 0 0 0-4.167-4.166c-17.548 0-31.795-14.247-31.795-31.795a4.166 4.166 0 0 0-4.166-4.166H110.661a4.167 4.167 0 0 0-4.167 4.166c0 17.548-14.246 31.795-31.794 31.795a4.166 4.166 0 0 0-4.167 4.166v34.607a4.169 4.169 0 0 0 4.167 4.166 4.168 4.168 0 0 0 4.166-4.166z"/>
            <path d="M177.778 149.927c-18.806 0-34.073 15.267-34.073 34.073 0 18.805 15.267 34.072 34.073 34.072 18.805 0 34.073-15.267 34.073-34.072 0-18.806-15.268-34.073-34.073-34.073Zm0 8.333c14.206 0 25.739 11.534 25.739 25.74 0 14.206-11.533 25.739-25.739 25.739-14.206 0-25.74-11.533-25.74-25.739 0-14.206 11.534-25.74 25.74-25.74Z"/>
        </symbol>
        <symbol id="transfer" viewBox="0 0 24 24">
            <path fill="#000" d="M4.669 4.824A10.885 10.885 0 0 1 12 2c3.836 0 7.21 1.975 9.162 4.969a1 1 0 0 0 1.676-1.093A12.92 12.92 0 0 0 12 0a12.877 12.877 0 0 0-7.943 2.727l-1.35-1.35A1 1 0 0 0 1 2.084v4.338a1 1 0 0 0 1.838.547 10.981 10.981 0 0 1 1.83-2.145zM14 12a2 2 0 1 1-4 0 2 2 0 0 1 4 0z"/>
            <path fill="#000" fill-rule="evenodd" d="M7 7a3 3 0 0 0-3 3v4a3 3 0 0 0 3 3h10a3 3 0 0 0 3-3v-4a3 3 0 0 0-3-3H7Zm-1 3a1 1 0 0 1 1-1h10a1 1 0 0 1 1 1v4a1 1 0 0 1-1 1H7a1 1 0 0 1-1-1v-4Z" clip-rule="evenodd"/>
            <path fill="#000" d="M19.331 19.176A10.885 10.885 0 0 1 12.001 22c-3.837 0-7.211-1.975-9.163-4.968a1 1 0 1 0-1.676 1.092A12.92 12.92 0 0 0 12 24c2.994 0 5.752-1.019 7.943-2.727l1.35 1.35A1 1 0 0 0 23 21.916v-4.338a1 1 0 0 0-1.838-.546 10.98 10.98 0 0 1-1.83 2.144Z"/>
        </symbol>
        <symbol id="others" viewBox="0 0 512 512">
            <path d="M256 48C141.1 48 48 141.1 48 256s93.1 208 208 208 208-93.1 208-208S370.9 48 256 48zm0 398.7c-105.1 0-190.7-85.5-190.7-190.7 0-105.1 85.5-190.7 190.7-190.7 105.1 0 190.7 85.5 190.7 190.7 0 105.1-85.6 190.7-190.7 190.7z"/>
            <path d="M259.6 146c-43.2 0-67.3 20.3-67.6 62.2h18.8c-.6-30.4 15.5-46.5 47.9-46.5 23.2 0 42.6 16.2 42.6 39.8 0 15.3-8.3 27.7-19.4 38.1-22.6 20.8-29 36-30.1 64.5h19c1.1-25.8.5-30.7 23.3-53.3 15.2-14.2 25.9-28.3 25.9-50.2 0-34.2-27.4-54.6-60.4-54.6zM260.3 332.3c-9.4 0-17 7.5-17 16.8s7.6 16.9 17 16.9 17-7.5 17-16.9c0-9.3-7.6-16.8-17-16.8z"/>
        </symbol>
        <symbol id="comission" viewBox="0 0 24 24">
            <path fill="#000" fill-rule="evenodd" d="M16.2335 7.32314C16.5367 6.24494 17.5201 5.5 18.6401 5.5H19.3599C20.4799 5.5 21.4633 6.24494 21.7665 7.32314L22.4813 9.86463C22.5237 10.0153 22.4931 10.1771 22.3986 10.3019 22.304 10.4267 22.1565 10.5 22 10.5H16C15.8435 10.5 15.696 10.4267 15.6015 10.3019 15.5069 10.1771 15.4763 10.0153 15.5187 9.86463L16.2335 7.32314zM18.6401 6.5C17.9681 6.5 17.3781 6.94696 17.1961 7.59388L16.66 9.5H21.34L20.8039 7.59388C20.6219 6.94696 20.0319 6.5 19.3599 6.5H18.6401zM2.23347 7.32314C2.53672 6.24494 3.52007 5.5 4.6401 5.5H5.35991C6.47994 5.5 7.46329 6.24494 7.76654 7.32314L8.48133 9.86463C8.52371 10.0153 8.49308 10.1771 8.39856 10.3019 8.30403 10.4267 8.15654 10.5 8 10.5H2C1.84347 10.5 1.69597 10.4267 1.60145 10.3019 1.50693 10.1771 1.4763 10.0153 1.51868 9.86463L2.23347 7.32314zM4.6401 6.5C3.96808 6.5 3.37807 6.94696 3.19612 7.59388L2.66003 9.5H7.33998L6.80388 7.59388C6.62194 6.94696 6.03193 6.5 5.35991 6.5H4.6401zM14.7665 19.3231C14.4633 18.2449 13.4799 17.5 12.3599 17.5H11.6401C10.5201 17.5 9.53671 18.2449 9.23346 19.3231L8.51867 21.8646C8.47629 22.0153 8.50692 22.1771 8.60144 22.3019 8.69597 22.4267 8.84346 22.5 9 22.5H10.9827C11.2588 22.5 11.4827 22.2761 11.4827 22 11.4827 21.7239 11.2588 21.5 10.9827 21.5H9.66002L10.1961 19.5939C10.3781 18.947 10.9681 18.5 11.6401 18.5H12.3599C13.0319 18.5 13.6219 18.947 13.8039 19.5939L14.34 21.5H13.9878C13.7116 21.5 13.4878 21.7239 13.4878 22 13.4878 22.2761 13.7116 22.5 13.9878 22.5H15C15.1565 22.5 15.304 22.4267 15.3985 22.3019 15.4931 22.1771 15.5237 22.0153 15.4813 21.8646L14.7665 19.3231z" clip-rule="evenodd"></path>
            <path fill="#000" fill-rule="evenodd" d="M12 14.5C12.8284 14.5 13.5 15.1716 13.5 16 13.5 16.8284 12.8284 17.5 12 17.5 11.1716 17.5 10.5 16.8284 10.5 16 10.5 15.8321 10.5274 15.6717 10.5775 15.5222 10.6654 15.2605 10.5244 14.977 10.2627 14.8891 10.0009 14.8012 9.71741 14.9422 9.62953 15.204 9.54539 15.4547 9.5 15.7225 9.5 16 9.5 17.3807 10.6193 18.5 12 18.5 13.3807 18.5 14.5 17.3807 14.5 16 14.5 14.6193 13.3807 13.5 12 13.5 11.7239 13.5 11.5 13.7239 11.5 14 11.5 14.2761 11.7239 14.5 12 14.5zM19 2.5C18.1716 2.5 17.5 3.17157 17.5 4 17.5 4.82843 18.1716 5.5 19 5.5 19.8284 5.5 20.5 4.82843 20.5 4 20.5 3.17157 19.8284 2.5 19 2.5zM16.5 4C16.5 2.61929 17.6193 1.5 19 1.5 20.3807 1.5 21.5 2.61929 21.5 4 21.5 5.38071 20.3807 6.5 19 6.5 17.6193 6.5 16.5 5.38071 16.5 4zM5 2.5C4.17157 2.5 3.5 3.17157 3.5 4 3.5 4.82843 4.17157 5.5 5 5.5 5.82843 5.5 6.5 4.82843 6.5 4 6.5 3.17157 5.82843 2.5 5 2.5zM2.5 4C2.5 2.61929 3.61929 1.5 5 1.5 6.38071 1.5 7.5 2.61929 7.5 4 7.5 5.38071 6.38071 6.5 5 6.5 3.61929 6.5 2.5 5.38071 2.5 4zM20 13.5C20.2761 13.5 20.5 13.7239 20.5 14V17C20.5 18.3807 19.3807 19.5 18 19.5H17.5C17.2239 19.5 17 19.2761 17 19 17 18.7239 17.2239 18.5 17.5 18.5H18C18.8284 18.5 19.5 17.8284 19.5 17V14C19.5 13.7239 19.7239 13.5 20 13.5zM4 13.5C3.72386 13.5 3.5 13.7239 3.5 14V17C3.5 18.3807 4.61929 19.5 6 19.5H6.5C6.77614 19.5 7 19.2761 7 19 7 18.7239 6.77614 18.5 6.5 18.5H6C5.17157 18.5 4.5 17.8284 4.5 17V14C4.5 13.7239 4.27614 13.5 4 13.5zM13.7764 6.44718C12.6581 5.88805 11.3419 5.88805 10.2236 6.44718 9.9766 6.57068 9.67627 6.47056 9.55277 6.22357 9.42928 5.97659 9.52939 5.67625 9.77638 5.55275 11.1762 4.85286 12.8238 4.85286 14.2236 5.55275 14.4706 5.67625 14.5707 5.97659 14.4472 6.22357 14.3237 6.47056 14.0234 6.57068 13.7764 6.44718z" clip-rule="evenodd"></path>
        </symbol>
        <symbol id="interest" viewBox="0 0 512 512">
            <path d="M512,348.71a31.22,31.22,0,0,0-40.28-28.08L356.4,355.71a32.59,32.59,0,0,0-18.89-23.29l-75.15-32.66A118.3,118.3,0,0,0,181.27,295l-35.39,10.65-.47-2.73a24.55,24.55,0,0,0-28.37-20L56.89,293.34h0L6.22,302.13a7.5,7.5,0,1,0,2.56,14.78l43.27-7.51L82.28,483.88,6.22,497.07A7.5,7.5,0,0,0,7.49,512a8,8,0,0,0,1.29-.11L152.39,487a24.58,24.58,0,0,0,20-28.38l-1.74-10,2.13-.5a32.07,32.07,0,0,1,14-.08l133.88,29.51A63.94,63.94,0,0,0,334.49,479a64.66,64.66,0,0,0,37.66-12.11l126.81-91A31.08,31.08,0,0,0,512,348.71ZM149.82,472.17l-52.76,9.15L66.83,306.84l52.77-9.15a9.54,9.54,0,0,1,11,7.78l24,138.3a.59.59,0,0,1,0,.13l3,17.23A9.56,9.56,0,0,1,149.82,472.17Zm340.4-108.43-126.81,91a49.63,49.63,0,0,1-39.57,8.13L190,433.31a47,47,0,0,0-20.58.12l-1.3.31L148.46,320.53l37.13-11.18a103.27,103.27,0,0,1,70.79,4.17l75.16,32.66a17.57,17.57,0,0,1,10.37,18.51,17.31,17.31,0,0,1-.35,1.83,17.48,17.48,0,0,1-20.87,12.85L278,369.74a7.5,7.5,0,0,0-3.3,14.64L317.38,394a32.47,32.47,0,0,0,38.33-22.4L476,335a16.44,16.44,0,0,1,4.76-.71,16.26,16.26,0,0,1,9.42,29.47ZM251.07,165.85A32.17,32.17,0,0,0,267.32,186a17.11,17.11,0,0,1,9.21,16,32,32,0,0,0,33.52,33.51A17.15,17.15,0,0,1,326,244.71,32.05,32.05,0,0,0,371.78,257a17.1,17.1,0,0,1,18.42,0A32.05,32.05,0,0,0,436,244.71a17.12,17.12,0,0,1,15.95-9.21A32.06,32.06,0,0,0,485.45,202a17.11,17.11,0,0,1,9.21-16,32.08,32.08,0,0,0,12.27-45.79,17.1,17.1,0,0,1,0-18.42,32.07,32.07,0,0,0-12.27-45.78,17.11,17.11,0,0,1-9.21-15.95,32.07,32.07,0,0,0-33.52-33.52A17.11,17.11,0,0,1,436,17.37,32.06,32.06,0,0,0,390.2,5.11a17.14,17.14,0,0,1-18.42,0A32.06,32.06,0,0,0,326,17.37a17.11,17.11,0,0,1-15.95,9.21A32.06,32.06,0,0,0,276.53,60.1a17.11,17.11,0,0,1-9.21,15.95,32.05,32.05,0,0,0-12.27,45.78,17.1,17.1,0,0,1,0,18.42A32.2,32.2,0,0,0,251.07,165.85Zm16.61-52.11a17.06,17.06,0,0,1,6.53-24.37,32.15,32.15,0,0,0,17.3-30,17.05,17.05,0,0,1,17.84-17.83,32.13,32.13,0,0,0,30-17.31,17.08,17.08,0,0,1,24.37-6.53,32.13,32.13,0,0,0,34.6,0,17.08,17.08,0,0,1,24.37,6.53,32.14,32.14,0,0,0,30,17.31A17.05,17.05,0,0,1,470.47,59.4a32.15,32.15,0,0,0,17.3,30,17.06,17.06,0,0,1,6.53,24.37,32.15,32.15,0,0,0,0,34.61,17.05,17.05,0,0,1-6.53,24.36,32.15,32.15,0,0,0-17.3,30,17.07,17.07,0,0,1-17.84,17.84,32.12,32.12,0,0,0-30,17.3,17.06,17.06,0,0,1-24.37,6.53,32.16,32.16,0,0,0-34.6,0,17.06,17.06,0,0,1-24.37-6.53,32.13,32.13,0,0,0-30-17.3,17.07,17.07,0,0,1-17.84-17.84,32.15,32.15,0,0,0-17.3-30,17.05,17.05,0,0,1-6.53-24.36A32.15,32.15,0,0,0,267.68,113.74Zm128.53,32.54a33.91,33.91,0,1,0,48,0A34,34,0,0,0,396.21,146.28Zm42.88,24a18.9,18.9,0,1,1-5.54-13.37A18.77,18.77,0,0,1,439.09,170.26Zm-97.31-44.53a33.89,33.89,0,1,0-24-9.91A33.79,33.79,0,0,0,341.78,125.73ZM328.41,78.48a18.9,18.9,0,1,1,0,26.73A18.79,18.79,0,0,1,328.41,78.48ZM325,187a7.48,7.48,0,0,0,10.6,0L437,85.65A7.5,7.5,0,1,0,426.39,75L325,176.44A7.49,7.49,0,0,0,325,187Z"></path>
        </symbol>
        <symbol id="investment" viewBox="0 0 32 32">
            <path d="M16,3a.5.5,0,0,0,.5-.5V.5a.5.5,0,0,0-1,0v2A.5.5,0,0,0,16,3ZM9.86,4.636a.5.5,0,1,0,.865-.5l-1-1.732a.5.5,0,1,0-.865.5ZM16,6.5A6.5,6.5,0,1,0,22.5,13,6.508,6.508,0,0,0,16,6.5Zm0,12A5.5,5.5,0,1,1,21.5,13,5.507,5.507,0,0,1,16,18.5ZM21.5,4.653a.5.5,0,0,0,.683-.183l1-1.732a.5.5,0,1,0-.865-.5l-1,1.732A.5.5,0,0,0,21.5,4.653ZM6.678,7.94l-1.731-1a.5.5,0,0,0-.5.866l1.731,1a.5.5,0,0,0,.5-.866ZM15.5,10.5h1a1,1,0,0,1,1,1,.5.5,0,0,0,1,0,2,2,0,0,0-2-2V9a.5.5,0,0,0-1,0v.5a2,2,0,0,0,0,4h1a1,1,0,0,1,0,2h-1a1,1,0,0,1-1-1,.5.5,0,0,0-1,0,2,2,0,0,0,2,2V17a.5.5,0,0,0,1,0v-.5a2,2,0,0,0,0-4h-1a1,1,0,0,1,0-2Zm6.483-4.221a9.064,9.064,0,0,0-7.072-2.215A8.992,8.992,0,0,0,9.382,19.088a11.382,11.382,0,0,1,2.772,6.384l.038.308a1.463,1.463,0,0,0,.2,1.72A1.486,1.486,0,0,0,13,29.908V30.5A1.5,1.5,0,0,0,14.5,32h3A1.5,1.5,0,0,0,19,30.5v-.592a1.486,1.486,0,0,0,.61-2.408,1.463,1.463,0,0,0,.2-1.722l.06-.506a12.342,12.342,0,0,1,2.982-6.436,8.993,8.993,0,0,0-.865-12.557ZM18,30.5a.5.5,0,0,1-.5.5h-3a.5.5,0,0,1-.5-.5V30h4Zm.5-1.5h-5a.5.5,0,0,1,0-1h5a.5.5,0,0,1,0,1Zm0-2h-5a.5.5,0,0,1,0-1h5a.5.5,0,0,1,0,1Zm3.59-8.815a13.353,13.353,0,0,0-3.2,6.873A1.48,1.48,0,0,0,18.5,25h-5a1.479,1.479,0,0,0-.4.061,12.279,12.279,0,0,0-2.984-6.65,8,8,0,1,1,11.973-.226ZM27.9,7.835a.5.5,0,0,0-.683-.183l-1.732,1a.5.5,0,0,0,.5.866l1.732-1A.5.5,0,0,0,27.9,7.835Z"></path>
        </symbol>
    </defs>
</svg>