<svg xmlns="http://www.w3.org/2000/svg">
    <defs>
        <symbol id="gift" viewBox="0 0 512 512">
            <path d="M489.5 74.49h-96.718V22.51A22.5 22.5 0 0 0 363.737.983l-81.65 24.826a38.917 38.917 0 0 0-52.175 0L148.262.983a22.5 22.5 0 0 0-29.044 21.527v51.98H22.5A22.526 22.526 0 0 0 0 96.99v45.51a22.53 22.53 0 0 0 19.5 22.294V474.5A37.542 37.542 0 0 0 57 512h398a37.542 37.542 0 0 0 37.5-37.5V164.794A22.53 22.53 0 0 0 512 142.5V96.99a22.526 22.526 0 0 0-22.5-22.5ZM293.318 109.15a7.5 7.5 0 1 0 4.364-14.352l-6.194-1.883A38.758 38.758 0 0 0 295 76.772V73.27h32.252a7.5 7.5 0 0 0 0-15H295v-3.5a38.756 38.756 0 0 0-3.511-16.142L368.1 15.334a7.5 7.5 0 0 1 9.681 7.176v58.276a6.932 6.932 0 0 0 0 2.409v25.837a7.5 7.5 0 0 1-9.681 7.176l-44.409-13.503a7.462 7.462 0 0 0-.732-.182c-.073-.015-.145-.021-.217-.034-.17-.028-.338-.056-.509-.073-.102-.01-.203-.01-.305-.016-.143-.009-.285-.019-.429-.019-.099 0-.196.008-.295.012-.147.006-.293.01-.44.025-.085.008-.168.024-.252.035-.16.021-.32.042-.478.074-.067.013-.132.033-.199.048a7.29 7.29 0 0 0-.512.131c-.056.017-.109.04-.164.057a7.36 7.36 0 0 0-.52.188c-.064.027-.124.06-.186.087-.158.07-.315.14-.47.222q-.323.173-.629.375l-.002.002c-.021.014-.04.03-.06.044a7.38 7.38 0 0 0-.538.4c-.068.054-.129.115-.193.172-.12.105-.24.21-.354.322-.077.076-.146.158-.218.237-.093.1-.188.2-.275.306-.074.09-.14.186-.21.28-.077.102-.156.203-.228.31-.07.104-.13.213-.195.32-.062.102-.126.202-.183.308-.069.13-.129.265-.19.398-.041.09-.087.175-.125.267a7.485 7.485 0 0 0-.222.617c-.009.028-.02.053-.029.08l-.001.004q-.107.353-.179.715c-.027.137-.042.275-.062.412-.014.103-.034.205-.045.309-.015.154-.019.307-.025.46-.003.09-.011.18-.011.27 0 .145.01.289.017.434.006.1.008.2.017.301.013.127.034.252.053.378.017.118.031.236.055.354.02.107.05.212.077.318.032.132.061.265.101.396.029.095.065.188.098.282.048.136.092.273.148.408.043.105.096.206.144.31.055.116.105.235.166.35q.174.326.378.635l.002.002 31.583 47.433c.081.131.166.26.255.385l13.406 20.133-21.64 2.804a7.498 7.498 0 0 0-5.526 3.68l-10.934 18.884-20.673-31.048-.033-.05-36.693-55.108 5.43-8.157a39.1 39.1 0 0 0 11.646-7.259ZM232 54.77a24 24 0 1 1 48 0v22a24.036 24.036 0 0 1-15.578 22.47 7.536 7.536 0 0 0-2.08.673A23.988 23.988 0 0 1 232 76.772ZM134.218 22.51a7.5 7.5 0 0 1 9.681-7.176l76.612 23.295A38.756 38.756 0 0 0 217 54.771v3.5h-32.252a7.5 7.5 0 1 0 0 15H217v3.5a38.758 38.758 0 0 0 3.512 16.143l-32.189 9.787-.009.003-44.415 13.504a7.5 7.5 0 0 1-9.681-7.176ZM22.5 150a7.508 7.508 0 0 1-7.5-7.5V96.99a7.508 7.508 0 0 1 7.5-7.5h96.718v19.542a22.536 22.536 0 0 0 22.433 22.519 22.716 22.716 0 0 0 6.612-.991l24.385-7.415L154.768 150ZM209 497H57a22.526 22.526 0 0 1-22.5-22.5V165h110.28l-12.463 18.717a7.5 7.5 0 0 0 5.28 11.594l29.933 3.88 15.124 26.122a7.498 7.498 0 0 0 6.256 3.738c.078.003.156.004.235.004a7.501 7.501 0 0 0 6.243-3.344l13.63-20.47Zm1.28-320.72-20.69 31.075-10.934-18.884a7.498 7.498 0 0 0-5.526-3.68l-21.64-2.804 13.5-20.276.028-.041 30.226-45.395 34.67-10.541a38.875 38.875 0 0 0 20.89 9.685l-.518.779a7.444 7.444 0 0 0-1.03 1.548l-38.94 58.481ZM477.5 474.5A22.526 22.526 0 0 1 455 497H303v-54.06a7.5 7.5 0 0 0-15 0V497h-64l.019-314.288 31.98-48.03L288 182.74v230.2a7.5 7.5 0 1 0 15 0V205.268l13.612 20.443a7.501 7.501 0 0 0 6.242 3.344c.079 0 .158-.001.237-.004a7.5 7.5 0 0 0 6.255-3.738l15.124-26.122 29.933-3.88a7.5 7.5 0 0 0 5.28-11.594L367.22 165H477.5Zm19.5-332a7.508 7.508 0 0 1-7.5 7.5H357.233l-17.881-26.855 24.385 7.415a22.721 22.721 0 0 0 6.612.99 22.536 22.536 0 0 0 22.433-22.518V89.49H489.5a7.508 7.508 0 0 1 7.5 7.5Z"/>
        </symbol>
        <symbol id="salary" viewBox="0 0 356 356">
            <path d="M306.95 186.069v-83.501a4.167 4.167 0 0 0-4.167-4.167H52.773a4.167 4.167 0 0 0-4.167 4.167v83.837c0 2.3 1.867 4.167 4.167 4.167a4.169 4.169 0 0 0 4.166-4.167v-79.67h241.677v79.334a4.169 4.169 0 0 0 4.167 4.166c2.3 0 4.167-1.867 4.167-4.166Z"/>
            <path d="M330.672 177.49a4.167 4.167 0 0 0-5.69-3.878l-147.204 57.819-147.204-57.819a4.166 4.166 0 0 0-5.69 3.878v99.399a39.68 39.68 0 0 0 39.681 39.681H290.99a39.679 39.679 0 0 0 39.682-39.681V177.49Zm-8.334 6.114v93.285a31.346 31.346 0 0 1-31.348 31.348H64.565a31.347 31.347 0 0 1-31.348-31.348v-93.285l143.037 56.182c.98.385 2.068.385 3.047 0l143.037-56.182Z"/>
            <path d="M33.217 177.49v-32.522a31.347 31.347 0 0 1 15.581-27.094l5.676-3.303a4.169 4.169 0 0 0 1.505-5.697 4.169 4.169 0 0 0-5.697-1.506l-5.676 3.304a39.68 39.68 0 0 0-19.722 34.296v32.522c0 2.3 1.867 4.167 4.166 4.167 2.3 0 4.167-1.867 4.167-4.167zm35.741-71.348 94.385-54.929c8.925-5.194 19.908-5.187 28.878.005 22.783 13.187 65.416 37.149 95.309 54.931a4.168 4.168 0 0 0 5.711-1.451 4.168 4.168 0 0 0-1.451-5.711c-29.92-17.798-72.591-41.783-95.394-54.981-11.569-6.696-25.734-6.694-37.245.005L64.766 98.939a4.169 4.169 0 0 0-1.505 5.697 4.169 4.169 0 0 0 5.697 1.506zm232.417 8.374a533.318 533.318 0 0 1 5.25 3.277c8.965 5.676 15.713 15.965 15.713 27.175v32.522c0 2.3 1.867 4.167 4.167 4.167s4.167-1.867 4.167-4.167v-32.522c0-14.079-8.329-27.087-19.589-34.216a552.68 552.68 0 0 0-5.333-3.329 4.17 4.17 0 0 0-5.734 1.359 4.17 4.17 0 0 0 1.359 5.734zM78.866 195.113v-30.654c18.823-1.945 33.802-16.925 35.747-35.747h126.329c1.946 18.823 16.925 33.802 35.748 35.747l-.001 30.947c0 2.3 1.867 4.167 4.167 4.167s4.167-1.867 4.167-4.167v-34.9a4.167 4.167 0 0 0-4.167-4.166c-17.548 0-31.795-14.247-31.795-31.795a4.166 4.166 0 0 0-4.166-4.166H110.661a4.167 4.167 0 0 0-4.167 4.166c0 17.548-14.246 31.795-31.794 31.795a4.166 4.166 0 0 0-4.167 4.166v34.607a4.169 4.169 0 0 0 4.167 4.166 4.168 4.168 0 0 0 4.166-4.166z"/>
            <path d="M177.778 149.927c-18.806 0-34.073 15.267-34.073 34.073 0 18.805 15.267 34.072 34.073 34.072 18.805 0 34.073-15.267 34.073-34.072 0-18.806-15.268-34.073-34.073-34.073Zm0 8.333c14.206 0 25.739 11.534 25.739 25.74 0 14.206-11.533 25.739-25.739 25.739-14.206 0-25.74-11.533-25.74-25.739 0-14.206 11.534-25.74 25.74-25.74Z"/>
        </symbol>
        <symbol id="transfer" viewBox="0 0 24 24">
            <path fill="#000" d="M4.669 4.824A10.885 10.885 0 0 1 12 2c3.836 0 7.21 1.975 9.162 4.969a1 1 0 0 0 1.676-1.093A12.92 12.92 0 0 0 12 0a12.877 12.877 0 0 0-7.943 2.727l-1.35-1.35A1 1 0 0 0 1 2.084v4.338a1 1 0 0 0 1.838.547 10.981 10.981 0 0 1 1.83-2.145zM14 12a2 2 0 1 1-4 0 2 2 0 0 1 4 0z"/>
            <path fill="#000" fill-rule="evenodd" d="M7 7a3 3 0 0 0-3 3v4a3 3 0 0 0 3 3h10a3 3 0 0 0 3-3v-4a3 3 0 0 0-3-3H7Zm-1 3a1 1 0 0 1 1-1h10a1 1 0 0 1 1 1v4a1 1 0 0 1-1 1H7a1 1 0 0 1-1-1v-4Z" clip-rule="evenodd"/>
            <path fill="#000" d="M19.331 19.176A10.885 10.885 0 0 1 12.001 22c-3.837 0-7.211-1.975-9.163-4.968a1 1 0 1 0-1.676 1.092A12.92 12.92 0 0 0 12 24c2.994 0 5.752-1.019 7.943-2.727l1.35 1.35A1 1 0 0 0 23 21.916v-4.338a1 1 0 0 0-1.838-.546 10.98 10.98 0 0 1-1.83 2.144Z"/>

        </symbol>
    </defs>
</svg>