<svg xmlns="http://www.w3.org/2000/svg">
    <defs>
        <symbol id="money" viewBox="0 0 24 24">
            <path strokeLinecap="round" strokeLinejoin="round" d="M12 6v12m-3-2.818l.879.659c1.171.879 3.07.879 4.242 0 1.172-.879 1.172-2.303 0-3.182C13.536 12.219 12.768 12 12 12c-.725 0-1.45-.22-2.003-.659-1.106-.879-1.106-2.303 0-3.182s2.9-.879 4.006 0l.415.33M21 12a9 9 0 11-18 0 9 9 0 0118 0z" />
        </symbol>
        <symbol id="plus" viewBox="0 0 24 24">
            <path strokeLinecap="round" strokeLinejoin="round" d="M12 6v6m0 0v6m0-6h6m-6 0H6" />
        </symbol>
        <symbol id="check" viewBox="0 0 20 20">
            <path fillRule="evenodd" d="M16.707 5.293a1 1 0 010 1.414l-8 8a1 1 0 01-1.414 0l-4-4a1 1 0 011.414-1.414L8 12.586l7.293-7.293a1 1 0 011.414 0z" clipRule="evenodd" />
        </symbol>
        <symbol id="mail" viewBox="0 0 512 512">
            <path d="M445.011,82.7H67.022a50.057,50.057,0,0,0-50,50V379.3a50.057,50.057,0,0,0,50,50H445.01a50.057,50.057,0,0,0,50-50V132.7A50.055,50.055,0,0,0,445.011,82.7Zm-88.9,173.232,118.9-93.318V371.352ZM67.022,102.7H445.01a30.034,30.034,0,0,1,30,30v4.49L282.6,288.208a39.972,39.972,0,0,1-49.246-.04L37.022,137.152V132.7A30.034,30.034,0,0,1,67.022,102.7Zm92.438,153.86L37.022,371.755V162.384ZM445.011,409.3H67.022a30.007,30.007,0,0,1-25.538-14.28l134.034-126.1L221.1,303.98a59.937,59.937,0,0,0,73.816-.019L340.235,268.4,470.6,394.94A30.011,30.011,0,0,1,445.011,409.3Z"/>
        </symbol>
    </defs>
</svg>