<svg xmlns="http://www.w3.org/2000/svg">
    <defs>
        <symbol id="money" viewBox="0 0 24 24">
            <path strokeLinecap="round" strokeLinejoin="round" d="M12 6v12m-3-2.818l.879.659c1.171.879 3.07.879 4.242 0 1.172-.879 1.172-2.303 0-3.182C13.536 12.219 12.768 12 12 12c-.725 0-1.45-.22-2.003-.659-1.106-.879-1.106-2.303 0-3.182s2.9-.879 4.006 0l.415.33M21 12a9 9 0 11-18 0 9 9 0 0118 0z" />
        </symbol>
        <symbol id="plus" viewBox="0 0 24 24">
            <path strokeLinecap="round" strokeLinejoin="round" d="M12 6v6m0 0v6m0-6h6m-6 0H6" />
        </symbol>
        <symbol id="check" viewBox="0 0 20 20">
            <path fillRule="evenodd" d="M16.707 5.293a1 1 0 010 1.414l-8 8a1 1 0 01-1.414 0l-4-4a1 1 0 011.414-1.414L8 12.586l7.293-7.293a1 1 0 011.414 0z" clipRule="evenodd" />
        </symbol>
    </defs>
</svg>