<svg xmlns="http://www.w3.org/2000/svg">
    <defs>
        <symbol id="money" viewBox="0 0 24 24">
            <path strokeLinecap="round" strokeLinejoin="round" d="M12 6v12m-3-2.818l.879.659c1.171.879 3.07.879 4.242 0 1.172-.879 1.172-2.303 0-3.182C13.536 12.219 12.768 12 12 12c-.725 0-1.45-.22-2.003-.659-1.106-.879-1.106-2.303 0-3.182s2.9-.879 4.006 0l.415.33M21 12a9 9 0 11-18 0 9 9 0 0118 0z" />
        </symbol>
        <symbol id="plus" viewBox="0 0 24 24">
            <path strokeLinecap="round" strokeLinejoin="round" d="M12 6v6m0 0v6m0-6h6m-6 0H6" />
        </symbol>
        <symbol id="check" viewBox="0 0 20 20">
            <path fillRule="evenodd" d="M16.707 5.293a1 1 0 010 1.414l-8 8a1 1 0 01-1.414 0l-4-4a1 1 0 011.414-1.414L8 12.586l7.293-7.293a1 1 0 011.414 0z" clipRule="evenodd" />
        </symbol>
        <symbol id="mail" viewBox="0 0 512 512">
            <path d="M445.011,82.7H67.022a50.057,50.057,0,0,0-50,50V379.3a50.057,50.057,0,0,0,50,50H445.01a50.057,50.057,0,0,0,50-50V132.7A50.055,50.055,0,0,0,445.011,82.7Zm-88.9,173.232,118.9-93.318V371.352ZM67.022,102.7H445.01a30.034,30.034,0,0,1,30,30v4.49L282.6,288.208a39.972,39.972,0,0,1-49.246-.04L37.022,137.152V132.7A30.034,30.034,0,0,1,67.022,102.7Zm92.438,153.86L37.022,371.755V162.384ZM445.011,409.3H67.022a30.007,30.007,0,0,1-25.538-14.28l134.034-126.1L221.1,303.98a59.937,59.937,0,0,0,73.816-.019L340.235,268.4,470.6,394.94A30.011,30.011,0,0,1,445.011,409.3Z"/>
        </symbol>
        <symbol id="search" viewBox="0 0 168 168">
            <path fill="#2d4356" d="M62,31h-.05371a31,31,0,0,0,.05078,62h.0556A31,31,0,0,0,62,31Zm.05078,61h-.05371a30,30,0,0,1-.04889-60H62a30,30,0,0,1,.05078,60Z"/>
            <path fill="#2d4356" d="M70.13177 50.60736a.49913.49913 0 0 0-.70209.083l-17.34674 22a.5.5 0 1 0 .78522.6192l17.34662-22A.5001.5001 0 0 0 70.13177 50.60736zM71.60736 59.51367L61.43353 72.41406a.5.5 0 0 0 .78522.61914L72.39258 60.13281a.5.5 0 0 0-.78522-.61914zM61.47559 51.11041a.49873.49873 0 0 0-.70221.08295l-10.166 12.8999a.5.5 0 0 0 .78522.61914l10.166-12.8999A.5.5 0 0 0 61.47559 51.11041z"/>
            <path fill="#2d4356" d="M152 146H139.45276a13.1113 13.1113 0 0 0 1.66827-1.45123l3.59772-3.68939c3.97162-4.06738 4.72943-9.79486.08594-14.39551L107.97656 90l-3.25592 3.34076-7.999-7.71375A41.9972 41.9972 0 0 0 62.001 20h-.0733a42 42 0 0 0 .06836 84h.07623a41.78937 41.78937 0 0 0 23.3916-7.16412l8.1709 7.87988L90 108.44531l36.834 36.46387A12.53651 12.53651 0 0 0 128.10492 146H16a1 1 0 0 0 0 2H152a1 1 0 0 0 0-2zM62.06836 102H61.996a40 40 0 0 1-.06445-80H62.002a40 40 0 0 1 .06641 80zM87.123 95.6582a42.28555 42.28555 0 0 0 8.42-8.38965l7.78119 7.50482-8.29687 8.5069zm41.11816 47.83008L92.81738 108.41986 108.002 92.83978l35.39551 35.045c4.19531 4.15619 2.69427 8.706-.11041 11.57813l-3.59857 3.69037A8.53936 8.53936 0 0 1 133.69727 146 7.70438 7.70438 0 0 1 128.24115 143.48828zM11 146H6a1 1 0 0 0 0 2h5a1 1 0 0 0 0-2z"/>
            <circle cx="1" cy="147" r="1" fill="#2d4356"/>
            <path fill="#2d4356" d="M162,146h-5a1,1,0,0,0,0,2h5a1,1,0,0,0,0-2Z"/>
            <circle cx="167" cy="147" r="1" fill="#2d4356"/>
            <path fill="#2d4356" d="M154 12.5a2 2 0 1 0 2 2A2.00229 2.00229 0 0 0 154 12.5zm0 3a1 1 0 1 1 1-1A1.001 1.001 0 0 1 154 15.5zM67 8.5a3 3 0 1 0-3-3A3.00344 3.00344 0 0 0 67 8.5zM67 4a1.5 1.5 0 1 1-1.5 1.5A1.50148 1.50148 0 0 1 67 4zM157 72.5a1 1 0 1 0-1-1A1.00115 1.00115 0 0 0 157 72.5zm0-1.5a.5.5 0 1 1-.5.5A.50049.50049 0 0 1 157 71zM116 69.5a2 2 0 1 0-2-2A2.00229 2.00229 0 0 0 116 69.5zm0-3a1 1 0 1 1-1 1A1.001 1.001 0 0 1 116 66.5zM8 14.5a2 2 0 1 0-2-2A2.00229 2.00229 0 0 0 8 14.5zm0-3a1 1 0 1 1-1 1A1.001 1.001 0 0 1 8 11.5z"/>
            <path fill="#0bceb2" d="M100.70117 108.27246l2.8974-2.92a.50062.50062 0 0 0-.71094-.705L99.64545 107.917a.50009.50009 0 0 0-.00287.70209l30 30.73053a.5.5 0 0 0 .71478-.69922zM105 152H63a1 1 0 0 0 0 2H81v2H71a1 1 0 0 0 0 2H98a1 1 0 0 0 0-2H87v-2h18a1 1 0 0 0 0-2zM119 152H109a1 1 0 0 0 0 2h10a1 1 0 0 0 0-2zM59 152H49a1 1 0 0 0 0 2H59a1 1 0 0 0 0-2z"/>
            <polygon fill="#0bceb2" points="9.583 69.511 11.07 67.556 10.131 67.024 9.177 69.214 9.145 69.214 8.175 67.039 7.22 67.587 8.691 69.496 8.691 69.527 6.391 69.23 6.391 70.294 8.707 69.997 8.707 70.028 7.22 71.936 8.112 72.5 9.13 70.294 9.16 70.294 10.099 72.484 11.085 71.921 9.583 70.043 9.583 70.012 11.945 70.294 11.945 69.23 9.583 69.542 9.583 69.511"/>
            <polygon fill="#0bceb2" points="36.281 20.269 37.137 19.143 36.597 18.837 36.047 20.098 36.029 20.098 35.471 18.845 34.92 19.161 35.768 20.26 35.768 20.278 34.443 20.107 34.443 20.72 35.777 20.549 35.777 20.567 34.92 21.666 35.434 21.99 36.02 20.72 36.038 20.72 36.578 21.981 37.146 21.657 36.281 20.575 36.281 20.557 37.641 20.72 37.641 20.107 36.281 20.287 36.281 20.269"/>
            <polygon fill="#0bceb2" points="154 48.213 154 47.17 151.683 47.477 151.683 47.446 153.142 45.528 152.221 45.006 151.285 47.154 151.253 47.154 150.302 45.021 149.365 45.559 150.808 47.431 150.808 47.462 148.552 47.17 148.552 48.213 150.823 47.922 150.823 47.953 149.365 49.825 150.24 50.378 151.238 48.213 151.268 48.213 152.189 50.362 153.156 49.81 151.683 47.968 151.683 47.937 154 48.213"/>
            <polygon fill="#0bceb2" points="112.702 11.523 111.444 13.138 112.198 13.615 113.06 11.748 113.085 11.748 113.88 13.601 114.714 13.125 113.443 11.536 113.443 11.509 115.442 11.748 115.442 10.848 113.443 11.112 113.443 11.086 114.701 9.431 113.907 8.981 113.099 10.834 113.073 10.834 112.252 8.994 111.444 9.458 112.689 11.073 112.689 11.099 110.742 10.848 110.742 11.748 112.702 11.496 112.702 11.523"/>
        </symbol>
        <symbol id="logo" viewBox="0 0 64 64">
            <path d="M51.1 22.1c.2.2.9.4 1.4-.1.4-.4.3-1-.1-1.4l-2.6-2.2c.7-.6 1.1-1.4 1.1-2.3 0-1.1-.7-2.1-1.6-2.6l2.1-4.6c.6-1.4.1-2.9-1.1-3.7-1.3-.8-2.8-.5-3.7.6-.4.4-.8.7-1.3.1 0 0-3.2-4-3.3-4.1-1.2-1.1-3-1-4.1 0l-3.2 4c-.1.2-.7.6-1.2 0-1-1.1-2.5-1.4-3.8-.6-1.3.8-1.7 2.3-1.1 3.6l2 4.5c-1 .5-1.6 1.5-1.6 2.6 0 .9.4 1.8 1.1 2.3l-2.6 2.2C20.8 26.3 17 34.6 17 43.4V46c0 .6.4 1 1 1s1-.4 1-1v-2.6c0-8.2 3.6-15.9 9.9-21.3l3.5-3.1H35v3c0 .6.4 1 1 1s1-.4 1-1v-3h6v7c0 .6.4 1 1 1s1-.4 1-1v-7h2.6l3.5 3.1zM32 17c-.6 0-1-.4-1-1s.4-1 1-1h8.7c.6 0 1-.4 1-1s-.4-1-1-1h-8.1l-2.2-5c-.3-.7.2-1.1.4-1.1.2-.1.7-.4 1.1.2.5.6 1.2 1 2 1.1.8.1 1.7-.3 2.3-.9l3.2-4c.3-.3.9-.3 1.2 0l3.2 4c.6.6 1.3.9 2.1.8.8 0 1.6-.4 2.1-1s1-.3 1.2-.2c.2 0 .8.4.5 1.1l-2.3 5H45c-.6 0-1 .4-1 1s.4 1 1 1h3c.6 0 1 .4 1 1s-.4 1-1 1H32z"/>
            <path d="M40 33c1.7 0 3 1.3 3 3 0 .6.4 1 1 1s1-.4 1-1c0-2.4-1.7-4.4-4-4.9V28c0-.6-.4-1-1-1s-1 .4-1 1v3.1c-2.3.5-4 2.5-4 4.9 0 2.8 2.2 5 5 5 1.7 0 3 1.3 3 3s-1.3 3-3 3-3-1.3-3-3c0-.6-.4-1-1-1s-1 .4-1 1c0 2.4 1.7 4.4 4 4.9V52c0 .6.4 1 1 1s1-.4 1-1v-3.1c2.3-.5 4-2.5 4-4.9 0-2.8-2.2-5-5-5-1.7 0-3-1.3-3-3s1.3-3 3-3zm23 18v-7.6c0-7.4-2.7-14.6-7.7-20.1-.4-.4-1-.4-1.4-.1s-.4 1-.1 1.4c4.6 5.1 7.2 11.8 7.2 18.7V51c0 5.5-4.5 10-10 10h-4.7c-.6 0-1 .4-1 1s.4 1 1 1H62c.6 0 1-.4 1-1s-.4-1-1-1h-4.4c3.3-2.2 5.4-5.8 5.4-10zM25.2 33c.4 0 .7-.2.9-.6 1.4-2.8 3.4-5.4 5.9-7.7.4-.4.4-1 .1-1.4-.4-.4-1-.4-1.4-.1-2.7 2.5-4.8 5.2-6.3 8.3-.2.5 0 1.1.4 1.3.1.2.2.2.4.2z"/>
            <path d="M51.9 57c-.5.1-.9.6-.8 1.1.2 1 1.1.9 1.1.8 3.9-.6 6.9-4 6.9-8 0-.6-.4-1-1-1s-1 .4-1 1c-.1 3.1-2.3 5.7-5.2 6.1zM58 47c.6 0 1-.4 1-1v-2c0-.6-.4-1-1-1s-1 .4-1 1v2c0 .6.4 1 1 1zM41.8 61H29c-5.5 0-10-4.5-10-10 0-.6-.4-1-1-1s-1 .4-1 1c0 4.2 2.1 7.8 5.4 10H13C7.5 61 3 56.5 3 51v-5.6c0-6.7 2.4-13.2 6.8-18.3.4-.4.3-1-.1-1.4-.4-.4-1.1-.3-1.4.1C3.6 31.2 1 38.2 1 45.4V51c0 4.2 2.1 7.8 5.4 10H2c-.6 0-1 .4-1 1s.4 1 1 1h39.8c.6 0 1-.4 1-1s-.4-1-1-1zM12.9 24.1l3.5-3.1H19v3c0 .6.4 1 1 1s1-.4 1-1v-3h4c.6 0 1-.4 1-1s-.4-1-1-1h-9c-.6 0-1-.4-1-1s.4-1 1-1h10.9c.6 0 1-.4 1-1s-.4-1-1-1H16.6l-2.3-5c-.3-.7.2-1.1.4-1.1.2-.1.7-.4 1.2.2.5.6 1.3 1 2.1 1s1.6-.3 2.1-.8l3.2-4c.4-.3.9-.3 1.2 0l1.1 1.4c.4.3 1 .3 1.5 0 .4-.3.5-1 .2-1.4l-1.2-1.5c-1.1-1.1-2.9-1.1-4.1 0l-3.3 4.1c-.3.1-.7.5-1.3-.1-.9-1.1-2.5-1.4-3.8-.6-1.3.8-1.7 2.3-1.1 3.7l2.1 4.5c-.9.5-1.6 1.5-1.6 2.6 0 .9.4 1.8 1.1 2.3l-2.6 2.2c-.4.4-.5 1-.1 1.4.7.8 1.3.3 1.5.2z"/>
            <path d="M11.9 59s1 .1 1.1-.8c.1-.5-.3-1.1-.8-1.1C9.2 56.6 7 54 7 51c0-.6-.4-1-1-1s-1 .4-1 1c0 4 2.9 7.4 6.9 8zM6 47c.6 0 1-.4 1-1v-2c0-.6-.4-1-1-1s-1 .4-1 1v2c0 .6.4 1 1 1z"/>
        </symbol>
        <symbol id="others" viewBox="0 0 512 512">
            <path d="M256 48C141.1 48 48 141.1 48 256s93.1 208 208 208 208-93.1 208-208S370.9 48 256 48zm0 398.7c-105.1 0-190.7-85.5-190.7-190.7 0-105.1 85.5-190.7 190.7-190.7 105.1 0 190.7 85.5 190.7 190.7 0 105.1-85.6 190.7-190.7 190.7z"/>
            <path d="M259.6 146c-43.2 0-67.3 20.3-67.6 62.2h18.8c-.6-30.4 15.5-46.5 47.9-46.5 23.2 0 42.6 16.2 42.6 39.8 0 15.3-8.3 27.7-19.4 38.1-22.6 20.8-29 36-30.1 64.5h19c1.1-25.8.5-30.7 23.3-53.3 15.2-14.2 25.9-28.3 25.9-50.2 0-34.2-27.4-54.6-60.4-54.6zM260.3 332.3c-9.4 0-17 7.5-17 16.8s7.6 16.9 17 16.9 17-7.5 17-16.9c0-9.3-7.6-16.8-17-16.8z"/>
        </symbol>
        <symbol id="student" viewBox="0 0 36 32">
            <path fill="#828282" d="M.5 31.983a.503.503 0 0 0 .612-.354c1.03-3.843 5.216-4.839 7.718-5.435.627-.149 1.122-.267 1.444-.406 2.85-1.237 3.779-3.227 4.057-4.679a.5.5 0 0 0-.165-.473c-1.484-1.281-2.736-3.204-3.526-5.416a.492.492 0 0 0-.103-.171c-1.045-1.136-1.645-2.337-1.645-3.294 0-.559.211-.934.686-1.217a.5.5 0 0 0 .243-.408C10.042 5.036 13.67 1.026 18.12 1l.107.007c4.472.062 8.077 4.158 8.206 9.324a.498.498 0 0 0 .178.369c.313.265.459.601.459 1.057 0 .801-.427 1.786-1.201 2.772a.522.522 0 0 0-.084.158c-.8 2.536-2.236 4.775-3.938 6.145a.502.502 0 0 0-.178.483c.278 1.451 1.207 3.44 4.057 4.679.337.146.86.26 1.523.403 2.477.536 6.622 1.435 7.639 5.232a.5.5 0 0 0 .966-.26c-1.175-4.387-5.871-5.404-8.393-5.95-.585-.127-1.09-.236-1.336-.344-1.86-.808-3.006-2.039-3.411-3.665 1.727-1.483 3.172-3.771 3.998-6.337.877-1.14 1.359-2.314 1.359-3.317 0-.669-.216-1.227-.644-1.663C27.189 4.489 23.19.076 18.227.005l-.149-.002c-4.873.026-8.889 4.323-9.24 9.83-.626.46-.944 1.105-.944 1.924 0 1.183.669 2.598 1.84 3.896.809 2.223 2.063 4.176 3.556 5.543-.403 1.632-1.55 2.867-3.414 3.676-.241.105-.721.22-1.277.352-2.541.604-7.269 1.729-8.453 6.147a.5.5 0 0 0 .354.612z"/>
        </symbol>
        <symbol id="profile" viewBox="0 0 24 24">
            <g fill="#200E32" transform="translate(3 2)">
                <ellipse cx="9" cy="5.556" opacity=".4" rx="5.625" ry="5.556"/>
                <path d="M17.9902354,16.6757991 L17.9902354,16.6757991 C17.9953097,16.5967226 17.9953097,16.5174327 17.9902354,16.4383562 C17.9679741,16.1461262 17.885058,15.8607505 17.7461199,15.5981735 C17.1993012,14.5296804 15.6662559,14.0456621 14.3870907,13.7716895 C13.4744565,13.5817014 12.5471782,13.4595545 11.6139387,13.4063927 L10.6374767,13.3333333 L10.1980688,13.3333333 L9.6512501,13.3333333 L8.34279105,13.3333333 L7.79597234,13.3333333 L7.35656445,13.3333333 L6.38010248,13.4063927 C5.44686291,13.4595545 4.51958466,13.5817014 3.60695046,13.7716895 C2.32778527,14.0091324 0.794739971,14.5022831 0.247921264,15.5981735 C0.10898315,15.8607505 0.0260670984,16.1461262 0.00380576968,16.4383562 C-0.00126858989,16.5174327 -0.00126858989,16.5967226 0.00380576968,16.6757991 L0.00380576968,16.6757991 C-0.000879294659,16.7548861 -0.000879294659,16.834155 0.00380576968,16.913242 C0.0303656032,17.2029741 0.116574533,17.4851701 0.257685884,17.7442922 C0.804504591,18.8127854 2.33754989,19.2968037 3.61671508,19.5707763 C4.53104892,19.7518719 5.45762024,19.8739256 6.3898671,19.9360731 L7.36632907,20 L7.60067995,20 L7.80573696,20 L10.2078334,20 L10.4128904,20 L10.6472413,20 L11.6237033,19.9360731 C12.5559501,19.8739256 13.4825215,19.7518719 14.3968553,19.5707763 C15.6760205,19.3242009 17.2090658,18.8401826 17.7558845,17.7442922 C17.890425,17.4769528 17.9730826,17.1893744 18,16.8949772 C18.0012406,16.8218031 17.9979804,16.748623 17.9902354,16.6757991 Z"/>
            </g>
        </symbol>
    </defs>
</svg>