<svg xmlns="http://www.w3.org/2000/svg">
    <defs>

        <symbol id="groceries" viewBox="0 0 64 64">
            <path d="M15.00038 30.48256a1.00011 1.00011 0 00-2 0v2h2zM50.00038 29.48256a1.003 1.003 0 00-1 1v2h2v-2A1.003 1.003 0 0050.00038 29.48256zM15.18038 34.48256a3.00061 3.00061 0 002.82 2h28a3.02147 3.02147 0 003-3v-1h-34A5.72164 5.72164 0 0015.18038 34.48256z"/>
            <path d="M61.66036,28.10255a4.01112,4.01112,0,0,0-1.68-5.08,4.99166,4.99166,0,0,0-2.37-3.79c3.62671-9.506.00256-18.08923-8.91-13.43a5.00579,5.00579,0,0,0-9.03-.79,6.98446,6.98446,0,0,0-7.47632,1.4068A6.02218,6.02218,0,0,0,23.00038,11.504a4.994,4.994,0,0,0-1.54083,1.917l-1.08917-1.88849a4.00831,4.00831,0,0,0-5.46-1.47l-.5-.87a1.99386,1.99386,0,0,0,.72-2.73l-1-1.73a2.00341,2.00341,0,0,0-2.73-.73l-6.93006,4a2.008,2.008,0,0,0-.73,2.73l1,1.73a2.01247,2.01247,0,0,0,2.73.74l.5.87a3.98482,3.98482,0,0,0-1.59527,5.17005,4.96827,4.96827,0,0,0-2.3537,3.781,3.9948,3.9948,0,0,0-1.67627,5.07178c-.51721.78382-.30432,2.48859-.34473,3.38721a3.00883,3.00883,0,0,0,3,3h1.22l6.04,23.25a4.99593,4.99593,0,0,0,4.84,3.75H46.90041a4.99591,4.99591,0,0,0,4.84-3.75l6.04-23.25h1.22a3.00883,3.00883,0,0,0,3-3C61.95833,30.58437,62.17153,28.89,61.66036,28.10255Zm-4.8-6.97a2.85585,2.85585,0,0,1,1.12,2.53,1.0013,1.0013,0,0,0,.67005.94,1.999,1.999,0,0,1,1.34,2.06c-.63263-.33362-3.87774-.12616-4.61-.18-.29248-.03345-1.15808.0188-1.47.00006A30.70033,30.70033,0,0,0,56.86037,21.13252Zm-7.81-6.05,1.5-2.6a.99915.99915,0,1,1,1.73,1l-1.5,2.6,1.74,1a.99913.99913,0,0,1-1,1.73l-1.74-1-1.5,2.6,1.74,1a.99913.99913,0,0,1-1,1.73l-1.74-1-2.51,4.34h-2.28a.47252.47252,0,0,1,.06-.15l3-5.19-1.73-1a1.01033,1.01033,0,0,1-.37-1.37.99839.99839,0,0,1,1.37-.36l1.73,1,1.5-2.6-1.73-1a.99914.99914,0,0,1,1-1.73Zm-17.44989-2.78a1.05289,1.05289,0,0,0,.3999-.82,5.02438,5.02438,0,0,1,7.64008-4.23987,1.01076,1.01076,0,0,0,1.48993-.57019,2.99322,2.99322,0,0,1,5.81.24005c-5.388,3.7237-10.671,12.94849-11.05,19.57h-1.89a2.99923,2.99923,0,0,1-1.52-5.57007.99888.99888,0,0,0-.09009-1.77A4.00825,4.00825,0,0,1,31.60048,12.30257Zm-8.6001,3.18A2.981,2.981,0,0,1,24.537,12.88588a.99967.99967,0,0,0,.50733-.9834,3.9924,3.9924,0,0,1,5.89435-3.90655,6.88712,6.88712,0,0,0-.91828,3.0166,6.01154,6.01154,0,0,0,.25,9.16,5.01793,5.01793,0,0,0-.27,6.31h-1c-1.44629-2.50049-4.63629-8.0307-6.10272-10.57477A.98277.98277,0,0,0,23.00038,15.48256Zm.00873,4.62512,1.28125,2.22485c-2.02136,1.24378-3.5617,1.65906-5.3164.72175A8.50448,8.50448,0,0,1,23.00911,20.10768ZM8.97035,15.79256a2.00787,2.00787,0,0,0,.74006-2.73005l-.5-.86c1.05877-.62488,2.39361-1.39258,3.46-2l.5.85a2.01383,2.01383,0,0,0,2.73.75,1.98828,1.98828,0,0,1,2.73.73L21.98885,18.35a10.45063,10.45063,0,0,0-4.60242,3.48785c-2.13684-2.22027-4.97052-3.3706-7.90607-1.16528-.28161-.49756-.95379-1.65179-1.23-2.13A2.029,2.029,0,0,1,8.97035,15.79256Zm-3.61889,8.813a.99834.99834,0,0,0,.64892-1.123,2.981,2.981,0,0,1,1.35205-2.4964c.64539,1.11249,2.50061,4.33649,3.168,5.4964-.2782.01556-1.59173-.02582-1.83416-.00006-.73713.0542-4.02-.15253-4.65986.17553A1.94908,1.94908,0,0,1,5.35146,24.60561ZM24.24037,54.45253a.996.996,0,0,1-1.21-.73l-2-8a.99922.99922,0,1,1,1.93994-.48l2,8A.99931.99931,0,0,1,24.24037,54.45253Zm8.76-.97a1.00011,1.00011,0,0,1-2-.00006V45.48256a1,1,0,0,1,2,0Zm9.97-7.76-2,8a.99932.99932,0,0,1-1.93994-.48l2-7.99994A.99932.99932,0,0,1,42.97035,45.72255Zm17.03-14.24a1.003,1.003,0,0,1-1,1h-8c.33124,3.11212-1.67639,5.96673-5.00006,6H18.00038c-3.316-.03058-5.33563-2.88959-5-6h-8a1.003,1.003,0,0,1-1-1v-2a1.04068,1.04068,0,0,1,.29-.71,1.01447,1.01447,0,0,1,.71-.29h54a.99957.99957,0,0,1,1,1Z"/>
        </symbol>
        <symbol id="fuel" viewBox="0 0 80 80">
            <path d="M27.52 65a4.279 4.279 0 0 0-4.274 4.273V74a1 1 0 0 0 1 1h43.856a1 1 0 0 0 1-1v-4.195A4.81 4.81 0 0 0 64.296 65h-1.388V37h.86a3.143 3.143 0 0 0 3.14-3.14V8.14A3.143 3.143 0 0 0 63.768 5h-35.72a3.143 3.143 0 0 0-3.14 3.14v25.72a3.143 3.143 0 0 0 3.14 3.14h.816l.027 17.969h-4.773c-4.799 0-8.702-3.904-8.702-8.702V29.463h.517c.811 0 1.471-.66 1.471-1.471v-1.014a5.471 5.471 0 0 0 3.894-5.228c0-.919-.237-1.826-.678-2.628l.25-.25c.57-.573.57-1.506.019-2.06l-.542-.573 1.55-1.474a1 1 0 1 0-1.378-1.45l-1.546 1.471-.402-.425a1.476 1.476 0 0 0-2.087.008l-4.964 5.067c-.4.4-.622.933-.622 1.5v7.056c0 .81.66 1.47 1.472 1.47h1.046v16.805c0 5.901 4.8 10.702 10.702 10.702h4.776L28.906 65H27.52zm-8.222-43.25a3.471 3.471 0 0 1-1.894 3.085v-2.498l1.708-1.707c.122.356.186.733.186 1.12zm-6.4-.814 4.626-4.771 1.567 1.657-3.256 3.257a1.46 1.46 0 0 0-.43 1.04v5.344h-2.507v-6.527zm54.204 48.869V73H25.246v-3.727A2.276 2.276 0 0 1 27.52 67h36.776a2.808 2.808 0 0 1 2.806 2.805zM26.908 33.86V8.139c0-.628.51-1.139 1.14-1.139h35.72c.628 0 1.14.511 1.14 1.14v25.72a1.14 1.14 0 0 1-1.14 1.14H28.048a1.14 1.14 0 0 1-1.14-1.14zM30.864 37h30.044v28H30.906l-.042-28z"/>
            <path d="M31.908 31h29a1 1 0 0 0 1-1V12a1 1 0 0 0-1-1h-29a1 1 0 0 0-1 1v18a1 1 0 0 0 1 1zm1-18h27v16h-27V13zm24 27h-5a1 1 0 0 0-1 1v11a1 1 0 0 0 1 1h5a1 1 0 0 0 1-1V41a1 1 0 0 0-1-1zm-1 11h-3v-9h3v9zm-12-10h-2a1 1 0 1 0 0 2h2a1 1 0 1 0 0-2zm-7.375 0h-2a1 1 0 1 0 0 2h2a1 1 0 1 0 0-2zm7.375 4h-2a1 1 0 1 0 0 2h2a1 1 0 1 0 0-2zm-7.375 0h-2a1 1 0 1 0 0 2h2a1 1 0 1 0 0-2zm7.375 4h-2a1 1 0 1 0 0 2h2a1 1 0 1 0 0-2zm-7.375 0h-2a1 1 0 1 0 0 2h2a1 1 0 1 0 0-2z"/>
        </symbol>
        <symbol id="health" viewBox="0 0 32 32">
            <path d="M28.345,3.953C26.603,2.048,24.28,1,21.803,1C19.662,1,17.635,1.784,16,3.227C14.365,1.784,12.338,1,10.197,1c-2.477,0-4.8,1.048-6.542,2.953c-3.54,3.87-3.54,10.166,0,14.036l11.606,12.687C15.451,30.882,15.719,31,16,31s0.549-0.118,0.739-0.325l11.606-12.687C31.885,14.119,31.885,7.823,28.345,3.953z M26.867,16.639L16,28.518L5.132,16.639c-2.859-3.125-2.859-8.211,0-11.336C6.491,3.817,8.289,3,10.197,3c1.908,0,3.706,0.817,5.064,2.302c0.379,0.414,1.098,0.414,1.478,0C18.097,3.817,19.895,3,21.803,3c1.908,0,3.707,0.817,5.065,2.302C29.727,8.428,29.727,13.514,26.867,16.639z"/>
            <path d="M24,13h-2.5l-2.7-3.6c-0.208-0.277-0.541-0.426-0.89-0.396c-0.345,0.031-0.649,0.239-0.805,0.549l-3.276,6.553L11.8,13.4C11.611,13.148,11.315,13,11,13H8c-0.552,0-1,0.448-1,1s0.448,1,1,1h2.5l2.7,3.6C13.39,18.853,13.687,19,14,19c0.03,0,0.06-0.001,0.09-0.004c0.345-0.031,0.649-0.239,0.805-0.549l3.276-6.553L20.2,14.6c0.188,0.252,0.485,0.4,0.8,0.4h3c0.552,0,1-0.448,1-1S24.552,13,24,13z"/>
        </symbol>
        <symbol id="snacks" viewBox="0 0 32 32">
            <path d="M7.5 18a.5.5 0 1 0 .5.5.5.5 0 0 0-.5-.5Zm3 1a.5.5 0 1 0 .5.5.5.5 0 0 0-.5-.5Zm-6 0a.5.5 0 1 0 .5.5.5.5 0 0 0-.5-.5Zm3 1a.5.5 0 1 0 .5.5.5.5 0 0 0-.5-.5Zm10 0a.5.5 0 1 0 .5.5.5.5 0 0 0-.5-.5ZM29 10V8h-5V3.38L26.68.71 26 0l-3 3v5h-5v2h-3v3h1.05l.32 3.08a4.94 4.94 0 0 0-.87-.08h-9A5.51 5.51 0 0 0 1 21.5v.59a1.49 1.49 0 0 0 0 2.82v1.68a1.48 1.48 0 0 0 0 2.81A3 3 0 0 0 4 32h25l2-19h1v-3ZM19 9h9v1h-9ZM2 21.5A4.51 4.51 0 0 1 6.5 17h9a4.51 4.51 0 0 1 4.5 4.5v.5H2ZM1.5 23h19a.5.5 0 0 1 0 1h-19a.5.5 0 0 1 0-1Zm.5 3.5V25h18.36v1.5Zm6.07 1L7 28.82 5.93 27.5Zm1.29 0h11.15a.49.49 0 1 1 0 1H8.57Zm-7.87 1a.49.49 0 1 1 0-1h3.15l.79 1ZM18 31H4a2 2 0 0 1-2-1.53h4.24l.76.93.76-.93h12.18A2 2 0 0 1 18 31Zm10.08 0h-7.89a3 3 0 0 0 .61-1h7.36Zm.21-2h-6.72a1.44 1.44 0 0 0 .43-1 1.47 1.47 0 0 0-.64-1.21v-2.07a1.16 1.16 0 0 0 .28-.26 3.5 3.5 0 1 0-1-4.95 5.52 5.52 0 0 0-3.21-3.16L17.06 13h12.88ZM21 22.09v-.59a2.52 2.52 0 1 1 1 2 1.51 1.51 0 0 0-1-1.41ZM31 12H16v-1h15Zm-16.5 8a.5.5 0 1 0 .5.5.5.5 0 0 0-.5-.5Zm1-2a.5.5 0 1 0 .5.5.5.5 0 0 0-.5-.5Z"/>
        </symbol>
        <symbol id="electricity" viewBox="0 0 512 512">
            <path fill="#18171c" d="M276.73242,151.55127l28.13965-70.81689a11.49981,11.49981,0,0,0-18.77734-12.41993l-87.49805,86.61573A11.49855,11.49855,0,0,0,199.127,171.77l-.001-.00049,33.03418,28.81836-30.88379,72.42627a11.49507,11.49507,0,0,0,18.09082,13.21875l93.47949-80.63281a11.5,11.5,0,0,0,.6709-16.78711ZM220.99121,265.023l25.96484-60.89063a11.47463,11.47463,0,0,0-3.01855-13.17675l-32.11328-28.01416L284.751,90.751l-22.80371,57.3872a11.503,11.503,0,0,0,2.50488,12.32471l35.76172,36.22461Zm115.40918,67.56641a175.997,175.997,0,1,0-161.15527-.17725,45.2933,45.2933,0,0,1,15.4873,13.09991,25.03073,25.03073,0,0,0-22.71191,24.89081v3.06494a24.91416,24.91416,0,0,0,7.16894,17.5,24.91418,24.91418,0,0,0-7.16894,17.5v3.06446a24.91418,24.91418,0,0,0,7.16894,17.5,24.91416,24.91416,0,0,0-7.16894,17.5v3.06445a25.02817,25.02817,0,0,0,25,25h12.33374l4.47192,12.51367A37.57136,37.57136,0,0,0,245.13965,512h21.7207a37.57075,37.57075,0,0,0,35.3125-24.88623l4.47315-12.51709h12.33349a25.02817,25.02817,0,0,0,25-25v-3.06445a24.91416,24.91416,0,0,0-7.16894-17.5,24.91418,24.91418,0,0,0,7.16894-17.5v-3.06446a24.91418,24.91418,0,0,0-7.16894-17.5,24.91416,24.91416,0,0,0,7.16894-17.5v-3.06494a25.02912,25.02912,0,0,0-22.87109-24.90295A44.50334,44.50334,0,0,1,336.40039,332.58936Zm-48.35351,149.48A22.54131,22.54131,0,0,1,266.86035,497h-21.7207a22.5419,22.5419,0,0,1-21.1875-14.93408l-2.66919-7.46924h69.43433Zm40.93261-32.47266a10.01146,10.01146,0,0,1-10,10h-125.959a10.01146,10.01146,0,0,1-10-10v-3.06445a10.01146,10.01146,0,0,1,10-10h125.959a10.01146,10.01146,0,0,1,10,10Zm0-38.06445a10.01146,10.01146,0,0,1-10,10h-125.959a10.01146,10.01146,0,0,1-10-10v-3.06446a10.01146,10.01146,0,0,1,10-10h125.959a10.01146,10.01146,0,0,1,10,10Zm0-41.1294v3.06494a10.01146,10.01146,0,0,1-10,10h-125.959a10.01146,10.01146,0,0,1-10-10v-3.06494a10.01146,10.01146,0,0,1,10-10h125.959A10.01146,10.01146,0,0,1,328.97949,370.40283Zm-25.36474-25H208.23584a59.997,59.997,0,0,0-26.09912-26.314,161.00473,161.00473,0,1,1,147.39941.16357A59.18407,59.18407,0,0,0,303.61475,345.40283Z"/>
        </symbol>
        <symbol id="transportation" viewBox="0 0 64 64">
            <rect width="44" height="4" x="9.99" y="16" fill="#010101"/>
            <path fill="#010101" d="M50.83,0H13.15A5.17,5.17,0,0,0,8,5.16V49.84A5.17,5.17,0,0,0,13.15,55H50.83A5.17,5.17,0,0,0,56,49.84V5.16A5.17,5.17,0,0,0,50.83,0ZM52,49.84A1.16,1.16,0,0,1,50.83,51H13.15A1.16,1.16,0,0,1,12,49.84V5.16A1.16,1.16,0,0,1,13.15,4H50.83A1.16,1.16,0,0,1,52,5.16Z"/>
            <rect width="16" height="4" x="23.99" y="8" fill="#010101"/>
            <rect width="44" height="4" x="9.99" y="36" fill="#010101"/>
            <polygon fill="#010101" points="20.36 54.46 19.82 55 10.81 64 5.17 64 14.16 55 17.54 51.63 20.36 54.46"/>
            <polygon fill="#010101" points="58.83 64 53.15 64 44.1 55 43.56 54.46 46.38 51.62 49.78 55 58.83 64"/>
            <path fill="#010101" d="M46.18 48h-.37A1.81 1.81 0 0 1 44 46.19v-.37A1.81 1.81 0 0 1 45.81 44h.37A1.81 1.81 0 0 1 48 45.82v.37A1.81 1.81 0 0 1 46.18 48zM18.18 48h-.37A1.81 1.81 0 0 1 16 46.19v-.37A1.81 1.81 0 0 1 17.81 44h.37A1.81 1.81 0 0 1 20 45.82v.37A1.81 1.81 0 0 1 18.18 48z"/>
        </symbol>
        <symbol id='education' viewBox='0 0 48 48'>
            <path fill="#1a1a1a" d="M12.633 38.824H2.245c-.558 0-.745 0-.745-1.011V35.408a.75.75 0 0 0-1.5 0v2.405a2.142 2.142 0 0 0 2.245 2.511H12.633a.75.75 0 0 0 0-1.5zM.75 33.047a.75.75 0 0 0 .75-.75V7.505l22.7.039V20.049a.75.75 0 0 0 1.5 0V7.544A1.53 1.53 0 0 0 24.185 6H2.136l3.43-2.9h21.8a1.2 1.2 0 0 1 1.2 1.2V19.52a.75.75 0 0 0 1.5 0V4.3a2.7 2.7 0 0 0-2.7-2.7H5.292a.749.749 0 0 0-.484.177L.353 5.551a1.116 1.116 0 0 0-.242.377A.736.736 0 0 0 0 6.3v26A.75.75 0 0 0 .75 33.047z"/>
            <path fill="#1a1a1a" d="M27.142 19.781a.75.75 0 0 0 .75-.75V6.04a2.234 2.234 0 0 0-2.227-2.231L6.919 3.77h0a.75.75 0 0 0 0 1.5l18.747.039a.732.732 0 0 1 .73.731V19.031A.75.75 0 0 0 27.142 19.781zM37.472 34.059a.75.75 0 0 0-.75.75v6.236a.9.9 0 0 1-.1.421C36.2 42.271 34.2 44.9 26.2 44.9s-10-2.626-10.427-3.432a.9.9 0 0 1-.1-.42V35.127a.75.75 0 0 0-1.5 0v5.918a2.416 2.416 0 0 0 .268 1.119C15.115 43.437 17.6 46.4 26.2 46.4s11.084-2.96 11.753-4.232a2.4 2.4 0 0 0 .27-1.12V34.809A.75.75 0 0 0 37.472 34.059z"/>
            <path fill="#1a1a1a" d="M47.487,27.639,27.645,21.011a.732.732,0,0,0-.467,0L4.827,28.177A.751.751,0,0,0,4.816,29.6l20.9,7.064a.76.76,0,0,0,.24.04.751.751,0,0,0,.252-.044l15.341-5.478v3.6a2.522,2.522,0,0,0-1.793,2.406V38.7a2.528,2.528,0,0,0,5.056,0V37.186a2.524,2.524,0,0,0-1.763-2.4v-4.14L47.5,29.057a.75.75,0,0,0-.015-1.418ZM43.308,38.7a1.028,1.028,0,0,1-2.056,0V37.186a1.028,1.028,0,1,1,2.056,0ZM42.192,29.36,26.279,27.643a.75.75,0,1,0-.16,1.491l12.829,1.384-13,4.644L7.454,28.91l19.948-6.4,17.551,5.863Z"/>
        </symbol>
    </defs>
</svg>